<svg id="Layer_1" data-name="Layer 1" xmlns="http://www.w3.org/2000/svg" viewBox="0 0 347.37 63.78"><defs><style>.cls-1{fill:#b8d7dc;}.cls-2{fill:#fff;}.cls-3{fill:#231f20;}</style></defs><circle class="cls-1" cx="31.89" cy="31.89" r="31.89"/><path class="cls-2" d="M82.45,64.33a2.17,2.17,0,0,1,.65,1.61,2,2,0,0,1-.65,1.56,2.28,2.28,0,0,1-1.61.6H63a2.26,2.26,0,0,1-1.65-.63,2.21,2.21,0,0,1-.66-1.68,2.58,2.58,0,0,1,.71-1.71L72.61,51.93q4.67-5,4.67-8.78a6.06,6.06,0,0,0-1.78-4.49A6.15,6.15,0,0,0,71,36.87a6.74,6.74,0,0,0-3.57,1.06,7.68,7.68,0,0,0-2.76,3,2.28,2.28,0,0,1-3.51.4,1.93,1.93,0,0,1-.76-1.5,2.21,2.21,0,0,1,.38-1.16,10.9,10.9,0,0,1,1.08-1.4A11.88,11.88,0,0,1,66,33.76a11.25,11.25,0,0,1,5.17-1.3A11.92,11.92,0,0,1,77,33.81a9.56,9.56,0,0,1,3.79,3.72A10.81,10.81,0,0,1,82.15,43q0,5.77-6.22,12.45l-7.58,8.28H80.84A2.19,2.19,0,0,1,82.45,64.33Z" transform="translate(-38.93 -19.22)"/><path class="cls-3" d="M123.28,64.89a12.45,12.45,0,0,1-4.1-2.55,2,2,0,0,1-.81-1.58,1.73,1.73,0,0,1,.54-1.24,1.71,1.71,0,0,1,1.26-.56,1.61,1.61,0,0,1,1.12.42,10.5,10.5,0,0,0,3.16,2.09,9.66,9.66,0,0,0,3.71.68A7.17,7.17,0,0,0,132.25,61a3.28,3.28,0,0,0,1.67-2.8,3.63,3.63,0,0,0-1.67-3.09,14.82,14.82,0,0,0-5-1.82,13.23,13.23,0,0,1-6.09-2.65,6.4,6.4,0,0,1-2.13-5.11,6.79,6.79,0,0,1,1.19-4,7.63,7.63,0,0,1,3.3-2.63,11.89,11.89,0,0,1,4.76-.92,13,13,0,0,1,4.49.77,9.5,9.5,0,0,1,3.42,2,2.18,2.18,0,0,1,.88,1.65,1.71,1.71,0,0,1-.52,1.23,1.65,1.65,0,0,1-1.24.54,1.27,1.27,0,0,1-.89-.31,7.93,7.93,0,0,0-2.76-1.69,9.28,9.28,0,0,0-3.38-.69,7,7,0,0,0-4.09,1.06,3.41,3.41,0,0,0,0,5.66A14.41,14.41,0,0,0,128.73,50a24.2,24.2,0,0,1,4.9,1.53A6.86,6.86,0,0,1,136.56,54a7.28,7.28,0,0,1,1,4.11,6.52,6.52,0,0,1-1.25,4A8.22,8.22,0,0,1,133,64.72a11.48,11.48,0,0,1-4.72,1A14.3,14.3,0,0,1,123.28,64.89Z" transform="translate(-38.93 -19.22)"/><path class="cls-3" d="M159.06,55.64a1.84,1.84,0,0,1-1.27.48H144.28a6.69,6.69,0,0,0,2.13,4.49A6.51,6.51,0,0,0,151,62.3a7,7,0,0,0,3-.54,7.64,7.64,0,0,0,2-1.38A2.13,2.13,0,0,1,157.1,60a1.42,1.42,0,0,1,1.09.46,1.47,1.47,0,0,1,.45,1.07,1.91,1.91,0,0,1-.77,1.46,9,9,0,0,1-3,1.88,9.73,9.73,0,0,1-3.76.77,11.12,11.12,0,0,1-5.47-1.31A9.13,9.13,0,0,1,142,60.73a10.91,10.91,0,0,1-1.28-5.3,11.68,11.68,0,0,1,1.32-5.66,9.62,9.62,0,0,1,3.5-3.75,9,9,0,0,1,9.27,0,9.62,9.62,0,0,1,3.45,3.49,9.9,9.9,0,0,1,1.34,5A1.61,1.61,0,0,1,159.06,55.64Zm-12.55-6.33a6,6,0,0,0-2.08,3.74h11.33v-.31a4.71,4.71,0,0,0-1.83-3.34,5.74,5.74,0,0,0-3.7-1.3A5.91,5.91,0,0,0,146.51,49.31Z" transform="translate(-38.93 -19.22)"/><path class="cls-3" d="M177.66,45.68q2,1,2,2.46a1.83,1.83,0,0,1-.42,1.17,1.34,1.34,0,0,1-1.08.51,1.69,1.69,0,0,1-.78-.15,8.15,8.15,0,0,1-.79-.5,4.58,4.58,0,0,0-.73-.54,5.12,5.12,0,0,0-1.3-.38A9,9,0,0,0,173,48.1a6.66,6.66,0,0,0-3.53.92,6.23,6.23,0,0,0-2.38,2.55,7.83,7.83,0,0,0-.85,3.63,7.91,7.91,0,0,0,.83,3.65,6.3,6.3,0,0,0,2.32,2.53,6.44,6.44,0,0,0,3.42.92,7.22,7.22,0,0,0,3.22-.61,8.21,8.21,0,0,0,.73-.5,4.27,4.27,0,0,1,.67-.46,1.43,1.43,0,0,1,.71-.16,1.55,1.55,0,0,1,1.21.48,1.76,1.76,0,0,1,.45,1.25,2.11,2.11,0,0,1-1,1.59,8.07,8.07,0,0,1-2.73,1.29,13.11,13.11,0,0,1-3.66.5,9.67,9.67,0,0,1-5.15-1.37,9,9,0,0,1-3.43-3.76,11.66,11.66,0,0,1-1.21-5.35,11.25,11.25,0,0,1,1.27-5.36,9.41,9.41,0,0,1,3.53-3.76,9.82,9.82,0,0,1,5.18-1.36A11.75,11.75,0,0,1,177.66,45.68Z" transform="translate(-38.93 -19.22)"/><path class="cls-3" d="M201.28,60.61a9.69,9.69,0,0,1-3.66,3.72,10.4,10.4,0,0,1-10.25,0,9.72,9.72,0,0,1-3.67-3.72,10.81,10.81,0,0,1-1.34-5.37,11.05,11.05,0,0,1,1.34-5.42,9.75,9.75,0,0,1,3.67-3.76,10.47,10.47,0,0,1,10.25,0,9.73,9.73,0,0,1,3.66,3.76,11,11,0,0,1,1.35,5.42A10.71,10.71,0,0,1,201.28,60.61Zm-3.16-9.08A6.45,6.45,0,0,0,195.77,49a6.43,6.43,0,0,0-6.56,0,6.36,6.36,0,0,0-2.34,2.53,7.76,7.76,0,0,0-.87,3.71,7.53,7.53,0,0,0,.87,3.64,6.33,6.33,0,0,0,2.34,2.52,6.43,6.43,0,0,0,6.56,0,6.43,6.43,0,0,0,2.35-2.52,7.64,7.64,0,0,0,.86-3.64A7.87,7.87,0,0,0,198.12,51.53Z" transform="translate(-38.93 -19.22)"/><path class="cls-3" d="M224,53V63.45a1.85,1.85,0,0,1-.52,1.31,1.76,1.76,0,0,1-1.33.53,1.68,1.68,0,0,1-1.28-.53,1.81,1.81,0,0,1-.52-1.31V53.05a5.78,5.78,0,0,0-1-3.61A4,4,0,0,0,216,48.1a5.75,5.75,0,0,0-2.79.67,5.24,5.24,0,0,0-2,1.8,4.62,4.62,0,0,0-.71,2.48v10.4a1.84,1.84,0,0,1-.51,1.31,1.76,1.76,0,0,1-1.33.53,1.72,1.72,0,0,1-1.3-.51,1.82,1.82,0,0,1-.5-1.33V47a1.79,1.79,0,0,1,.52-1.3,1.69,1.69,0,0,1,1.28-.54,1.77,1.77,0,0,1,1.33.54,1.82,1.82,0,0,1,.51,1.3v1.35a8.34,8.34,0,0,1,2.79-2.6,7.4,7.4,0,0,1,3.82-1.05Q224,44.72,224,53Z" transform="translate(-38.93 -19.22)"/><path class="cls-3" d="M247.09,37.41a1.76,1.76,0,0,1,.52,1.32V63.45a1.81,1.81,0,0,1-.52,1.31,1.91,1.91,0,0,1-2.62,0,1.82,1.82,0,0,1-.5-1.33V62.38a7.83,7.83,0,0,1-2.71,2.34,7.63,7.63,0,0,1-3.74,1,8.56,8.56,0,0,1-4.72-1.35,9.35,9.35,0,0,1-3.34-3.74,12.52,12.52,0,0,1,0-10.78,9.25,9.25,0,0,1,3.32-3.75,8.76,8.76,0,0,1,8.4-.5A8.18,8.18,0,0,1,244,47.75v-9a1.78,1.78,0,0,1,.5-1.32,1.7,1.7,0,0,1,1.3-.52A1.76,1.76,0,0,1,247.09,37.41Zm-5.94,24a6.26,6.26,0,0,0,2.18-2.53,8.78,8.78,0,0,0,0-7.28A6.13,6.13,0,0,0,241.15,49a6,6,0,0,0-6.41,0,6.08,6.08,0,0,0-2.19,2.55,8.78,8.78,0,0,0,0,7.28,6.21,6.21,0,0,0,2.19,2.53,6,6,0,0,0,6.41,0Z" transform="translate(-38.93 -19.22)"/><path class="cls-3" d="M276.23,58.88a12.67,12.67,0,0,1-4.63,5,13.09,13.09,0,0,1-13.35,0,12.6,12.6,0,0,1-4.63-5,15.61,15.61,0,0,1,0-14.05,12.74,12.74,0,0,1,4.63-5,13.15,13.15,0,0,1,13.35,0,12.81,12.81,0,0,1,4.63,5,15.61,15.61,0,0,1,0,14.05Zm-3.44-12.22a8.89,8.89,0,0,0-3.2-3.65,9,9,0,0,0-9.33,0,8.77,8.77,0,0,0-3.2,3.63,12.32,12.32,0,0,0,0,10.44,9,9,0,0,0,3.2,3.65,8.9,8.9,0,0,0,9.33,0,9,9,0,0,0,3.2-3.65,12.24,12.24,0,0,0,0-10.4Z" transform="translate(-38.93 -19.22)"/><path class="cls-3" d="M297.09,46.16a9.11,9.11,0,0,1,3.32,3.7,11.67,11.67,0,0,1,1.21,5.38,11.52,11.52,0,0,1-1.21,5.35,9.27,9.27,0,0,1-3.32,3.71,8.51,8.51,0,0,1-4.64,1.34,8.22,8.22,0,0,1-3.73-.88,9.1,9.1,0,0,1-2.8-2.15v8.52a1.77,1.77,0,0,1-.52,1.3,1.87,1.87,0,0,1-2.61,0,1.79,1.79,0,0,1-.51-1.32V47a1.91,1.91,0,0,1,.49-1.34,1.71,1.71,0,0,1,1.31-.54,1.73,1.73,0,0,1,1.32.54,1.85,1.85,0,0,1,.52,1.34V48.1a7.54,7.54,0,0,1,2.69-2.31,7.76,7.76,0,0,1,3.76-1A8.73,8.73,0,0,1,297.09,46.16Zm-2,15.18a6.13,6.13,0,0,0,2.21-2.51,8.55,8.55,0,0,0,0-7.18,6.22,6.22,0,0,0-2.21-2.52,5.74,5.74,0,0,0-3.18-.92,5.93,5.93,0,0,0-3.23.9,6.08,6.08,0,0,0-2.2,2.52,8.64,8.64,0,0,0,0,7.22,6.05,6.05,0,0,0,2.2,2.51,5.93,5.93,0,0,0,3.23.9A5.74,5.74,0,0,0,295.13,61.34Z" transform="translate(-38.93 -19.22)"/><path class="cls-3" d="M305.86,42.05a1.59,1.59,0,0,1-.48-1.28v-.62a1.52,1.52,0,0,1,.52-1.3,2.66,2.66,0,0,1,1.59-.39,2.41,2.41,0,0,1,1.56.41,1.56,1.56,0,0,1,.48,1.28v.62a1.56,1.56,0,0,1-.5,1.3,2.56,2.56,0,0,1-1.57.38A2.48,2.48,0,0,1,305.86,42.05Zm2.92,22.71a1.76,1.76,0,0,1-1.32.53,1.71,1.71,0,0,1-1.29-.53,1.81,1.81,0,0,1-.52-1.31V46.83a1.77,1.77,0,0,1,.52-1.3,1.71,1.71,0,0,1,1.29-.54,1.81,1.81,0,0,1,1.84,1.84V63.45A1.81,1.81,0,0,1,308.78,64.76Z" transform="translate(-38.93 -19.22)"/><path class="cls-3" d="M331.72,53V63.45a1.85,1.85,0,0,1-.52,1.31,1.76,1.76,0,0,1-1.33.53,1.68,1.68,0,0,1-1.28-.53,1.81,1.81,0,0,1-.52-1.31V53.05a5.78,5.78,0,0,0-1-3.61,4,4,0,0,0-3.37-1.34,5.75,5.75,0,0,0-2.79.67,5.24,5.24,0,0,0-2,1.8,4.62,4.62,0,0,0-.71,2.48v10.4a1.84,1.84,0,0,1-.51,1.31,1.76,1.76,0,0,1-1.33.53,1.72,1.72,0,0,1-1.3-.51,1.82,1.82,0,0,1-.5-1.33V47a1.79,1.79,0,0,1,.52-1.3,1.69,1.69,0,0,1,1.28-.54,1.77,1.77,0,0,1,1.33.54,1.82,1.82,0,0,1,.51,1.3v1.35a8.34,8.34,0,0,1,2.79-2.6,7.4,7.4,0,0,1,3.82-1.05Q331.71,44.72,331.72,53Z" transform="translate(-38.93 -19.22)"/><path class="cls-3" d="M337.18,42.05a1.58,1.58,0,0,1-.47-1.28v-.62a1.52,1.52,0,0,1,.51-1.3,2.67,2.67,0,0,1,1.6-.39,2.4,2.4,0,0,1,1.55.41,1.56,1.56,0,0,1,.48,1.28v.62a1.56,1.56,0,0,1-.5,1.3,2.56,2.56,0,0,1-1.57.38A2.5,2.5,0,0,1,337.18,42.05Zm2.92,22.71a1.87,1.87,0,0,1-2.61,0,1.85,1.85,0,0,1-.52-1.31V46.83a1.81,1.81,0,0,1,.52-1.3,1.85,1.85,0,0,1,2.61,0,1.77,1.77,0,0,1,.52,1.3V63.45A1.81,1.81,0,0,1,340.1,64.76Z" transform="translate(-38.93 -19.22)"/><path class="cls-3" d="M363.57,60.61a9.62,9.62,0,0,1-3.66,3.72,10.4,10.4,0,0,1-10.25,0A9.72,9.72,0,0,1,346,60.61a10.81,10.81,0,0,1-1.34-5.37A11.05,11.05,0,0,1,346,49.82a9.75,9.75,0,0,1,3.67-3.76,10.47,10.47,0,0,1,10.25,0,9.66,9.66,0,0,1,3.66,3.76,11,11,0,0,1,1.35,5.42A10.71,10.71,0,0,1,363.57,60.61Zm-3.16-9.08A6.5,6.5,0,0,0,358.07,49a6.45,6.45,0,0,0-6.57,0,6.5,6.5,0,0,0-2.34,2.53,7.75,7.75,0,0,0-.86,3.71,7.53,7.53,0,0,0,.86,3.64,6.48,6.48,0,0,0,2.34,2.52,6.45,6.45,0,0,0,6.57,0,6.48,6.48,0,0,0,2.34-2.52,7.64,7.64,0,0,0,.86-3.64A7.87,7.87,0,0,0,360.41,51.53Z" transform="translate(-38.93 -19.22)"/><path class="cls-3" d="M386.3,53V63.45a1.81,1.81,0,0,1-.52,1.31,1.74,1.74,0,0,1-1.32.53,1.71,1.71,0,0,1-1.29-.53,1.85,1.85,0,0,1-.52-1.31V53.05a5.78,5.78,0,0,0-1-3.61,4,4,0,0,0-3.38-1.34,5.72,5.72,0,0,0-2.78.67,5.1,5.1,0,0,0-2,1.8,4.53,4.53,0,0,0-.71,2.48v10.4a1.85,1.85,0,0,1-.52,1.31,1.76,1.76,0,0,1-1.33.53,1.74,1.74,0,0,1-1.3-.51,1.86,1.86,0,0,1-.5-1.33V47a1.79,1.79,0,0,1,.52-1.3,1.69,1.69,0,0,1,1.28-.54,1.77,1.77,0,0,1,1.33.54,1.83,1.83,0,0,1,.52,1.3v1.35a8.21,8.21,0,0,1,2.78-2.6,7.4,7.4,0,0,1,3.82-1.05Q386.31,44.72,386.3,53Z" transform="translate(-38.93 -19.22)"/></svg>